# xmcd
#
# Track frame offsets:
#	150
#	4561
#	29808
#	55613
#	78342
#	97470
#	118970
#	144573
#	164213
#	192703
#	229465
#	249387
#	273976
#	301007
#	318167
#
# Disc length: 4470 seconds
#
# Revision: 1
# Processed by: cddbd v1.5.2PL0 Copyright (c) Steve Scherf et al.
# Submitted via: audiograbber 1.83.01
#
DISCID=d911740f
DTITLE=Sweet Suzi and SugaFixx - She's a live one
DYEAR=2011
DGENRE=Blues
TTITLE0=Intro
TTITLE1=Home Alone
TTITLE2=Feels Like The Blues
TTITLE3=Brick Wall
TTITLE4=Too Hot To Touch
TTITLE5=Wrong
TTITLE6=Enjoy
TTITLE7=Set Me Free
TTITLE8=Moanin'
TTITLE9=Deja Blues
TTITLE10=I Just Want To Make Love To You
TTITLE11=Woe is me
TTITLE12=With Or Without You
TTITLE13=King Bee
TTITLE14=Hidden Track
EXTD=
EXTT0=
EXTT1=
EXTT2=
EXTT3=
EXTT4=
EXTT5=
EXTT6=
EXTT7=
EXTT8=
EXTT9=
EXTT10=
EXTT11=
EXTT12=
EXTT13=
EXTT14=
PLAYORDER=
